<?xml version="1.0" standalone="no"?>
<!DOCTYPE svg PUBLIC "-//W3C//DTD SVG 1.1//EN" "http://www.w3.org/Graphics/SVG/1.1/DTD/svg11.dtd">
<svg xmlns="http://www.w3.org/2000/svg" xmlns:xlink="http://www.w3.org/1999/xlink" version="1.1" width="1375" height="605" style="shape-rendering:geometricPrecision; text-rendering:geometricPrecision; image-rendering:optimizeQuality; fill-rule:evenodd; clip-rule:evenodd" viewBox="0 0 1375 605">
<g><path style="opacity:0.984" fill="#fefffe" d="M 369.5,116.5 C 396.292,115.265 422.292,119.098 447.5,128C 477.526,142.193 491.526,166.027 489.5,199.5C 489.428,205.201 489.094,210.867 488.5,216.5C 461.833,216.5 435.167,216.5 408.5,216.5C 410.607,183.777 395.607,170.944 363.5,178C 334.629,187.204 317.462,206.704 312,236.5C 310.356,259.526 320.856,273.359 343.5,278C 366.022,280.889 383.689,273.056 396.5,254.5C 423.825,253.5 451.159,253.167 478.5,253.5C 467.415,287.755 445.082,311.588 411.5,325C 369.394,339.541 327.061,340.207 284.5,327C 248.274,312.242 229.274,285.242 227.5,246C 233.486,184.351 265.819,143.684 324.5,124C 339.394,119.962 354.394,117.462 369.5,116.5 Z"/></g>
<g><path style="opacity:0.984" fill="#fefffe" d="M 862.5,116.5 C 889.567,114.945 916.234,117.445 942.5,124C 955.591,127.548 967.591,133.214 978.5,141C 992.124,154.377 998.124,170.543 996.5,189.5C 969.842,190.5 943.175,190.833 916.5,190.5C 913.673,177.508 905.673,169.674 892.5,167C 879.389,164.389 866.723,165.723 854.5,171C 846.135,179.231 847.135,186.231 857.5,192C 888.115,199.791 918.782,207.457 949.5,215C 979.99,225.145 990.49,245.645 981,276.5C 976.397,291.444 967.564,303.277 954.5,312C 934.877,324.097 913.544,331.43 890.5,334C 865.5,337.333 840.5,337.333 815.5,334C 796.057,331.855 778.391,325.188 762.5,314C 745.88,298.917 737.88,280.083 738.5,257.5C 765.835,257.333 793.169,257.5 820.5,258C 823.787,275.614 834.454,285.28 852.5,287C 864.722,288.325 876.722,287.325 888.5,284C 899.191,278.702 900.524,272.035 892.5,264C 861.743,256.081 831.41,246.748 801.5,236C 769.353,224.563 757.853,202.397 767,169.5C 775.114,153.719 786.947,141.553 802.5,133C 821.588,123.731 841.588,118.231 862.5,116.5 Z"/></g>
<g><path style="opacity:0.987" fill="#fefffe" d="M 601.5,123.5 C 633.5,123.5 665.5,123.5 697.5,123.5C 709.371,192.855 721.371,262.188 733.5,331.5C 704.167,331.5 674.833,331.5 645.5,331.5C 644.448,323.209 643.781,314.876 643.5,306.5C 615.498,306.333 587.498,306.5 559.5,307C 554.043,314.747 548.71,322.58 543.5,330.5C 512.172,331.667 480.839,331.833 449.5,331C 500.307,261.863 550.974,192.696 601.5,123.5 Z M 633.5,188.5 C 634.222,188.918 634.722,189.584 635,190.5C 637.22,214.81 639.054,239.143 640.5,263.5C 622.155,263.833 603.821,263.5 585.5,262.5C 601.946,238.067 617.946,213.401 633.5,188.5 Z"/></g>
<g><path style="opacity:0.987" fill="#fefffe" d="M 1039.5,123.5 C 1112.17,123.5 1184.83,123.5 1257.5,123.5C 1253.15,141.572 1248.48,159.572 1243.5,177.5C 1197.84,178.333 1152.17,178.833 1106.5,179C 1103.78,187.381 1101.45,195.881 1099.5,204.5C 1143.17,204.5 1186.83,204.5 1230.5,204.5C 1226.68,219.458 1223.01,234.458 1219.5,249.5C 1175.5,249.5 1131.5,249.5 1087.5,249.5C 1085.48,258.24 1083.15,266.907 1080.5,275.5C 1126.5,276.167 1172.5,276.833 1218.5,277.5C 1213.52,295.428 1208.85,313.428 1204.5,331.5C 1131.83,331.5 1059.17,331.5 986.5,331.5C 1003.85,262.089 1021.52,192.755 1039.5,123.5 Z"/></g>
<g><path style="opacity:0.993" fill="#fdfdfd" d="M 202.5,368.5 C 533.167,368.167 863.834,368.5 1194.5,369.5C 1184.34,408.471 1174.34,447.471 1164.5,486.5C 815.167,486.667 465.833,486.5 116.5,486C 145.298,446.893 173.965,407.726 202.5,368.5 Z"/></g>
<g><path style="opacity:1" fill="#070707" d="M 353.5,392.5 C 364.904,391.716 375.904,393.382 386.5,397.5C 386.665,401.182 386.499,404.848 386,408.5C 372.702,399.892 359.202,399.392 345.5,407C 334.065,417.916 332.565,430.083 341,443.5C 351.913,454.013 364.413,456.18 378.5,450C 381.329,448.753 383.995,447.253 386.5,445.5C 387.833,449.167 387.833,452.833 386.5,456.5C 371.555,464.283 356.555,464.45 341.5,457C 326.754,445.759 322.254,431.259 328,413.5C 333.394,402.595 341.894,395.595 353.5,392.5 Z"/></g>
<g><path style="opacity:1" fill="#070707" d="M 425.5,392.5 C 441.656,389.939 455.156,394.606 466,406.5C 476.224,424.307 474.057,440.474 459.5,455C 442.34,465.588 425.673,464.922 409.5,453C 398.379,439.355 396.545,424.522 404,408.5C 409.632,401.026 416.798,395.692 425.5,392.5 Z"/></g>
<g><path style="opacity:1" fill="#080808" d="M 583.5,392.5 C 590.834,391.583 597.668,392.916 604,396.5C 604.667,400.167 604.667,403.833 604,407.5C 598.201,402.014 591.368,400.181 583.5,402C 578.311,404.913 577.144,409.08 580,414.5C 586.562,419.393 593.396,423.893 600.5,428C 609.833,438.333 609.833,448.667 600.5,459C 589.818,464.207 579.651,463.374 570,456.5C 569.333,452.5 569.333,448.5 570,444.5C 577,453.109 585.5,455.276 595.5,451C 599.256,446.97 599.422,442.803 596,438.5C 590.051,433.22 583.551,428.72 576.5,425C 566.207,415.664 565.874,405.998 575.5,396C 578.158,394.522 580.825,393.355 583.5,392.5 Z"/></g>
<g><path style="opacity:1" fill="#060606" d="M 880.5,397.5 C 880.813,401.042 880.479,404.375 879.5,407.5C 865.643,399.456 851.976,399.623 838.5,408C 828.392,420.085 827.892,432.585 837,445.5C 851.544,455.944 866.211,455.944 881,445.5C 881.667,449.167 881.667,452.833 881,456.5C 863.349,465.537 846.516,464.37 830.5,453C 821.657,443.129 818.491,431.629 821,418.5C 828.768,398.024 843.602,389.524 865.5,393C 870.548,394.405 875.548,395.905 880.5,397.5 Z"/></g>
<g><path style="opacity:1" fill="#090909" d="M 1014.5,392.5 C 1035.64,389.198 1050.47,397.198 1059,416.5C 1063.28,444.267 1051.45,459.601 1023.5,462.5C 1000.2,461.196 987.862,448.862 986.5,425.5C 988.706,408.305 998.039,397.305 1014.5,392.5 Z"/></g>
<g><path style="opacity:1" fill="#020202" d="M 541.5,443.5 C 541.783,444.289 542.283,444.956 543,445.5C 543.5,428.17 543.667,410.837 543.5,393.5C 546.5,393.5 549.5,393.5 552.5,393.5C 552.5,416.167 552.5,438.833 552.5,461.5C 549.482,461.665 546.482,461.498 543.5,461C 528.312,444.113 513.479,426.947 499,409.5C 498.5,426.83 498.333,444.163 498.5,461.5C 495.5,461.5 492.5,461.5 489.5,461.5C 489.5,438.833 489.5,416.167 489.5,393.5C 492.187,393.336 494.854,393.503 497.5,394C 512.032,410.694 526.699,427.194 541.5,443.5 Z"/></g>
<g><path style="opacity:1" fill="#bebebe" d="M 543.5,393.5 C 543.667,410.837 543.5,428.17 543,445.5C 542.283,444.956 541.783,444.289 541.5,443.5C 542.167,426.833 542.833,410.167 543.5,393.5 Z"/></g>
<g><path style="opacity:1" fill="#040404" d="M 615.5,393.5 C 634.5,393.5 653.5,393.5 672.5,393.5C 672.5,396.5 672.5,399.5 672.5,402.5C 664.5,402.5 656.5,402.5 648.5,402.5C 648.5,422.167 648.5,441.833 648.5,461.5C 645.5,461.5 642.5,461.5 639.5,461.5C 639.5,441.833 639.5,422.167 639.5,402.5C 631.5,402.5 623.5,402.5 615.5,402.5C 615.5,399.5 615.5,396.5 615.5,393.5 Z"/></g>
<g><path style="opacity:1" fill="#4c4c4c" d="M 706.5,393.5 C 699.5,393.5 692.5,393.5 685.5,393.5C 685.5,416.167 685.5,438.833 685.5,461.5C 684.502,438.673 684.169,415.673 684.5,392.5C 692.019,392.175 699.352,392.508 706.5,393.5 Z"/></g>
<g><path style="opacity:1" fill="#030303" d="M 706.5,393.5 C 721.334,396.158 726.834,404.824 723,419.5C 721.167,424 718,427.167 713.5,429C 716.333,431.833 719.167,434.667 722,437.5C 726.794,445.59 731.961,453.424 737.5,461C 733.5,461.667 729.5,461.667 725.5,461C 719.99,451.155 713.323,442.155 705.5,434C 704.255,433.209 702.922,432.709 701.5,432.5C 699.393,431.532 697.059,431.198 694.5,431.5C 694.5,441.5 694.5,451.5 694.5,461.5C 691.5,461.5 688.5,461.5 685.5,461.5C 685.5,438.833 685.5,416.167 685.5,393.5C 692.5,393.5 699.5,393.5 706.5,393.5 Z"/></g>
<g><path style="opacity:1" fill="#020202" d="M 745.5,393.5 C 748.833,393.5 752.167,393.5 755.5,393.5C 755.333,409.17 755.5,424.837 756,440.5C 759.075,449.129 765.241,453.462 774.5,453.5C 784.18,453.755 790.68,449.421 794,440.5C 794.5,424.837 794.667,409.17 794.5,393.5C 797.833,393.5 801.167,393.5 804.5,393.5C 804.667,408.837 804.5,424.17 804,439.5C 803.004,449.495 797.837,456.329 788.5,460C 773.622,465.644 760.789,462.811 750,451.5C 748.472,448.583 747.139,445.583 746,442.5C 745.5,426.17 745.333,409.837 745.5,393.5 Z"/></g>
<g><path style="opacity:1" fill="#080808" d="M 890.5,393.5 C 909.5,393.5 928.5,393.5 947.5,393.5C 947.5,396.5 947.5,399.5 947.5,402.5C 939.833,402.5 932.167,402.5 924.5,402.5C 924.5,422.167 924.5,441.833 924.5,461.5C 921.167,461.5 917.833,461.5 914.5,461.5C 914.5,441.833 914.5,422.167 914.5,402.5C 906.5,402.5 898.5,402.5 890.5,402.5C 890.5,399.5 890.5,396.5 890.5,393.5 Z"/></g>
<g><path style="opacity:1" fill="#000000" d="M 960.5,393.5 C 963.5,393.5 966.5,393.5 969.5,393.5C 969.5,416.167 969.5,438.833 969.5,461.5C 966.5,461.5 963.5,461.5 960.5,461.5C 960.5,438.833 960.5,416.167 960.5,393.5 Z"/></g>
<g><path style="opacity:1" fill="#020202" d="M 1077.5,393.5 C 1080.19,393.336 1082.85,393.503 1085.5,394C 1100.67,411.167 1115.83,428.333 1131,445.5C 1131.5,428.17 1131.67,410.837 1131.5,393.5C 1134.5,393.5 1137.5,393.5 1140.5,393.5C 1140.5,416.167 1140.5,438.833 1140.5,461.5C 1137.48,461.665 1134.48,461.498 1131.5,461C 1116.29,444.128 1101.46,426.962 1087,409.5C 1086.5,426.83 1086.33,444.163 1086.5,461.5C 1083.5,461.5 1080.5,461.5 1077.5,461.5C 1077.5,438.833 1077.5,416.167 1077.5,393.5 Z"/></g>
<g><path style="opacity:1" fill="#7e7e7e" d="M 880.5,397.5 C 881.808,401.019 881.808,404.685 880.5,408.5C 879.893,408.376 879.56,408.043 879.5,407.5C 880.479,404.375 880.813,401.042 880.5,397.5 Z"/></g>
<g><path style="opacity:1" fill="#fbfbfb" d="M 429.5,401.5 C 449.026,399.869 460.026,408.702 462.5,428C 459.927,445.902 449.594,454.236 431.5,453C 414.711,448.599 407.544,437.766 410,420.5C 413.121,410.544 419.621,404.21 429.5,401.5 Z"/></g>
<g><path style="opacity:1" fill="#fcfcfc" d="M 1016.5,401.5 C 1040.06,400.228 1050.9,411.228 1049,434.5C 1044.54,446.773 1035.71,453.106 1022.5,453.5C 1001.58,449.697 993.751,437.363 999,416.5C 1002.89,409.103 1008.72,404.103 1016.5,401.5 Z"/></g>
<g><path style="opacity:1" fill="#ababab" d="M 705.5,402.5 C 702.167,402.5 698.833,402.5 695.5,402.5C 695.5,409.167 695.5,415.833 695.5,422.5C 698.5,422.5 701.5,422.5 704.5,422.5C 701.375,423.479 698.042,423.813 694.5,423.5C 694.5,416.167 694.5,408.833 694.5,401.5C 698.371,401.185 702.038,401.518 705.5,402.5 Z"/></g>
<g><path style="opacity:1" fill="#fbfbfb" d="M 705.5,402.5 C 713.826,404.486 716.326,409.486 713,417.5C 710.97,420.563 708.136,422.229 704.5,422.5C 701.5,422.5 698.5,422.5 695.5,422.5C 695.5,415.833 695.5,409.167 695.5,402.5C 698.833,402.5 702.167,402.5 705.5,402.5 Z"/></g>
<g><path style="opacity:1" fill="#b2b2b2" d="M 701.5,432.5 C 699.5,432.5 697.5,432.5 695.5,432.5C 695.827,442.348 695.494,452.014 694.5,461.5C 694.5,451.5 694.5,441.5 694.5,431.5C 697.059,431.198 699.393,431.532 701.5,432.5 Z"/></g>
</svg>